<svg width="500" height="200" xmlns="http://www.w3.org/2000/svg">
 <g>
  <title>Layer 1</title>

  <polyline stroke="null" fill="#ed3da1" points="110.58999633789062,290.98870849609375 110.58999633789062,291.6787109375 110.58999633789062,291.98870849609375 " class="cls-1"/>
  <g id="svg_4">
   <path stroke="null" fill="#ed3da1" d="m161.70001,64.285l0,48.6c0,24 -15.36,37.32 -41.28,37.32c-11,0 -19.67,-2.88 -26,-7.92c-6.24,5 -15,7.92 -26,7.92c-25.8,0 -41.16,-13.32 -41.16,-37.32l0,-48.6l28.32,0l0,47.78c-0.07,10.08 3.77,15.22 12.34,15.22s12.36,-5.16 12.36,-15.24l0,-47.76l28.32,0l0,47.78c0,10.08 3.84,15.24 12.47,15.24s12.36,-5.16 12.36,-15.24l0,-47.78l28.27,0z" class="cls-1"/>
   <path stroke="null" fill="#ed3da1" d="m171.07001,63.585c0,-7.79 6.36,-13.79 16.32,-13.79s16.32,5.49 16.32,13.32c0,8.27 -6.36,14.27 -16.32,14.27s-16.32,-6 -16.32,-13.8zm2.76,19.08l27.09,0l0,65.62l-27.09,0l0,-65.62z" class="cls-1"/>
   <path stroke="null" fill="#ed3da1" d="m285.42001,110.865l0,37.42l-27.12,0l0,-32.74c0,-8.16 -3.12,-11.28 -8,-11.28c-5.51,0 -10.2,3.48 -10.2,13.2l0,30.82l-27.18,0l0,-65.62l25.8,0l0,6.48c5.15,-5.16 12.11,-7.68 19.79,-7.68c15.15,0 26.91,8.76 26.91,29.4z" class="cls-1"/>
   <path stroke="null" fill="#ed3da1" d="m342.30001,146.025c-4.2,2.4 -10.32,3.48 -16.68,3.48c-18.12,0 -28.67,-8.52 -28.67,-26.64l0,-55l27.11,0l0,18.42l13.44,0l0,19.8l-13.44,0l0,16.54c0,4.08 2.4,6.36 5.64,6.36a11.06,11.06 0 0 0 6.12,-1.8l6.48,18.84z" class="cls-1"/>
   <path stroke="null" fill="#ed3da1" d="m398.10001,124.665l14.16,14.28c-6.48,7 -15.72,10.56 -28.68,10.56c-24.12,0 -39.71,-14.52 -39.71,-34.08c0,-19.92 16.08,-34 37.67,-34c19.08,0 35.64,11.76 35.64,33.6l-44.88,8.64c2.16,4.08 6.24,5.76 12.12,5.76s9.36,-1.52 13.68,-4.76zm-27.6,-13.8l21,-4.08a10,10 0 0 0 -9.84,-6.84c-6.12,0 -10.32,3.48 -11.16,10.92z" class="cls-1"/>
   <path stroke="null" fill="#ed3da1" d="m472.74001,81.465l0,24a37.58,37.58 0 0 0 -6,-0.48c-8.16,0 -13.92,3.72 -13.92,14.16l0,29.14l-27.11,0l0,-65.62l25.79,0l0,7.08c4.8,-5.52 12.12,-8.28 21.24,-8.28z" class="cls-1"/>
  </g>
 </g>

</svg>